Patient4_TMGait_0pt6_01_left_44_GRF.mot
version=1
nRows=51
nColumns=19
inDegrees=no
endheader
time	F1x	F1y	F1z	M1x	M1y	M1z	F2x	F2y	F2z	M2x	M2y	M2z	EC1x	EC1y	EC1z	EC2x	EC2y	EC2z
53.5	6.6137	-5.981	2.2395	-0.51176	0.67314	-6.2883	-32.927	722.3674	-62.3193	299.9789	87.0651	773.899	-0.0592	0.0182	-0.0073	-0.0462	0.0165	0.9585
53.5121	4.5916	-3.3497	1.608	-0.62935	0.39626	-3.6193	-30.846	717.7697	-59.8999	297.8256	82.5015	767.0495	-0.0592	0.0182	-0.0073	-0.0462	0.0165	0.9585
53.5241	2.8099	-1.0805	0.99878	-0.72409	0.21136	-1.2805	-28.2177	714.2174	-57.1842	296.2055	77.5074	760.2834	-0.0592	0.0182	-0.0073	-0.0462	0.0165	0.9585
53.5362	1.382	0.70289	0.48246	-0.79948	0.098874	0.5945	-25.2871	712.6189	-54.3735	295.509	72.4363	754.6351	-0.0592	0.0182	-0.0073	-0.0462	0.0165	0.9585
53.5483	0.37162	1.9867	0.086216	-0.85866	0.048527	1.9473	-22.3083	713.5814	-51.6305	295.9754	67.5626	750.9013	-0.0592	0.0182	-0.0073	-0.0462	0.0165	0.9585
53.5604	-0.30682	2.8432	-0.1883	-0.90632	0.027539	2.8793	-19.4876	717.3501	-49.1136	297.6745	63.1089	749.5183	-0.0592	0.0182	-0.0073	-0.0462	0.0165	0.9585
53.5724	-0.69443	3.3205	-0.35698	-0.93299	0.027686	3.4106	-16.9162	723.7758	-46.9196	300.5125	59.1822	750.4548	-0.0592	0.0182	-0.0073	-0.0462	0.0165	0.9585
53.5845	-0.92438	3.5097	-0.44519	-0.93537	0.024805	3.6596	-14.5899	732.3844	-45.1063	304.2649	55.8089	753.3015	-0.0592	0.0182	-0.0073	-0.0462	0.0165	0.9585
53.5966	-1.0263	3.4262	-0.47564	-0.89443	0.016013	3.6009	-12.4028	742.448	-43.6807	308.6108	52.9302	757.339	-0.0592	0.0182	-0.0073	-0.0462	0.0165	0.9585
53.6086	-1.1123	3.0994	-0.46737	-0.7956	-0.023638	3.2795	-10.2213	753.048	-42.6258	313.1548	50.4519	761.646	-0.0592	0.0182	-0.0073	-0.0462	0.0165	0.9585
53.6207	-1.1884	2.4901	-0.43106	-0.61262	-0.091183	2.6266	-7.899	763.0942	-41.9261	317.4381	48.2787	765.1423	-0.0592	0.0182	-0.0073	-0.0462	0.0165	0.9585
53.6328	-1.3096	1.576	-0.38021	-0.3278	-0.1849	1.6487	-5.3261	771.4605	-41.5747	320.9897	46.3427	766.7492	-0.0592	0.0182	-0.0073	-0.0462	0.0165	0.9585
53.6449	-1.4423	0.31978	-0.31331	0.074663	-0.29421	0.2737	-2.4437	777.1368	-41.5795	323.3976	44.6178	765.5201	-0.0592	0.0182	-0.0073	-0.0462	0.0165	0.9585
53.6569	-1.5732	-1.2469	-0.24322	0.58892	-0.39784	-1.4498	0.72954	779.4934	-41.8974	324.4106	43.0622	760.9256	-0.0592	0.0182	-0.0073	-0.0462	0.0165	0.9585
53.669	-1.5917	-3.0239	-0.17328	1.1805	-0.46082	-3.4319	4.1615	778.4248	-42.465	323.9973	41.6327	752.9748	-0.0592	0.0182	-0.0073	-0.0462	0.0165	0.9585
53.6811	-1.3924	-4.7487	-0.12392	1.7605	-0.42925	-5.3809	7.7666	774.367	-43.1884	322.344	40.2807	742.2299	-0.0592	0.0182	-0.0073	-0.0462	0.0165	0.9585
53.6931	-0.79054	-5.9718	-0.11183	2.1713	-0.2259	-6.7963	11.4796	768.1404	-44.0285	319.7846	39.0031	729.6014	-0.0592	0.0182	-0.0073	-0.0462	0.0165	0.9585
53.7052	0.41282	-5.9606	-0.16304	2.1582	0.24699	-6.8512	15.2096	760.7958	-44.9715	316.7322	37.8221	716.2214	-0.0592	0.0182	-0.0073	-0.0462	0.0165	0.9585
53.7173	2.4343	-3.6836	-0.30362	1.3623	1.0955	-4.4009	18.8696	753.3766	-46.0327	313.5932	36.7847	703.1912	-0.0592	0.0182	-0.0073	-0.0462	0.0165	0.9585
53.7294	5.4501	2.2005	-0.56457	-0.68193	2.4188	2.0469	22.3444	746.7677	-47.1959	310.7037	35.915	691.4613	-0.0592	0.0182	-0.0073	-0.0462	0.0165	0.9585
53.7414	9.5216	13.2496	-0.97416	-4.5151	4.2686	14.232	25.56	741.4719	-48.4002	308.2525	35.1842	681.5848	-0.0592	0.0182	-0.0073	-0.0462	0.0165	0.9585
53.7535	14.4894	30.9853	-1.5387	-10.6666	6.5909	33.8605	28.4201	737.4865	-49.5327	306.2276	34.5245	673.6405	-0.0592	0.0182	-0.0073	-0.0462	0.0165	0.9585
53.7656	19.811	56.4989	-2.2402	-19.5143	9.1681	62.1773	30.85	734.1697	-50.4347	304.368	33.828	667.0724	-0.0592	0.0182	-0.0073	-0.0462	0.0165	0.9585
53.7776	24.4127	89.773	-3.0098	-31.0527	11.5442	99.1954	32.7376	730.2989	-50.9189	302.1849	32.9785	660.7757	-0.0592	0.0182	-0.0073	-0.0462	0.0165	0.9585
53.7897	26.4633	128.7836	-3.6982	-44.5769	12.9184	142.7237	34.0387	724.2537	-50.7965	299.0412	31.8403	653.2317	-0.0592	0.0182	-0.0073	-0.0462	0.0165	0.9585
53.8018	23.8052	168.7915	-4.0049	-58.4379	12.2242	187.5629	34.7545	714.4653	-49.9269	294.3307	30.3038	642.9339	-0.0592	0.0182	-0.0073	-0.0462	0.0165	0.9585
53.8139	16.3062	204.1653	-3.2588	-70.6605	8.7006	227.5485	35.0093	699.8851	-48.2637	287.6729	28.3031	628.774	-0.0592	0.0182	-0.0073	-0.0462	0.0165	0.9585
53.8259	6.4721	232.8858	-1.2107	-80.5216	2.9469	260.206	35.0343	680.3256	-45.9117	279.0288	25.8618	610.3985	-0.0592	0.0182	-0.0073	-0.0462	0.0165	0.9585
53.838	-3.6378	256.5563	1.4816	-88.5897	-3.6334	287.0748	35.0851	656.1315	-43.1406	268.5565	23.1173	587.9549	-0.0592	0.0182	-0.0073	-0.0462	0.0165	0.9585
53.8501	-12.5369	277.8137	4.6629	-95.795	-10.3199	310.8486	35.3747	627.5935	-40.2765	256.3861	20.2671	561.5895	-0.0592	0.0182	-0.0073	-0.0462	0.0165	0.9585
53.8621	-19.4651	298.7782	7.836	-102.9041	-16.325	333.8614	35.9483	594.8436	-37.4047	242.5809	17.3596	531.3958	-0.0592	0.0182	-0.0073	-0.0462	0.0165	0.9585
53.8742	-24.3611	320.5451	11.0327	-110.3092	-21.6208	357.3406	36.7427	557.8874	-34.4885	227.1605	14.3951	497.3944	-0.0592	0.0182	-0.0073	-0.0462	0.0165	0.9585
53.8863	-27.505	343.4813	13.9385	-118.1525	-25.9692	381.6134	37.4971	516.8375	-31.3986	210.1807	11.3619	459.7787	-0.0592	0.0182	-0.0073	-0.0462	0.0165	0.9585
53.8984	-29.109	367.8424	16.6372	-126.5121	-29.5111	406.9371	37.8908	471.9367	-28.0844	191.7483	8.3485	418.844	-0.0592	0.0182	-0.0073	-0.0462	0.0165	0.9585
53.9104	-29.3517	394.3754	19.0987	-135.6177	-32.2862	434.0113	37.5213	423.7421	-24.567	172.072	5.5174	375.1988	-0.0592	0.0182	-0.0073	-0.0462	0.0165	0.9585
53.9225	-28.4498	423.9233	21.6102	-145.705	-34.6683	463.7254	36.097	373.0098	-20.9899	151.4403	3.1011	329.554	-0.0592	0.0182	-0.0073	-0.0462	0.0165	0.9585
53.9346	-26.6036	456.966	24.4346	-156.8873	-37.0192	496.5797	33.3848	320.87	-17.5115	130.2801	1.3063	282.9651	-0.0592	0.0182	-0.0073	-0.0462	0.0165	0.9585
53.9466	-24.2391	493.4661	27.9596	-169.089	-39.8891	532.5742	29.4287	268.7335	-14.3045	109.1436	0.25675	236.6458	-0.0592	0.0182	-0.0073	-0.0462	0.0165	0.9585
53.9587	-21.6886	532.8634	32.5471	-182.0793	-43.7662	571.1395	24.4311	218.3307	-11.4795	88.7132	-0.050267	192.1112	-0.0592	0.0182	-0.0073	-0.0462	0.0165	0.9585
53.9708	-19.195	574.4124	38.1991	-195.5845	-48.7384	611.5649	18.9162	171.4271	-9.1121	69.6949	0.2394	150.8258	-0.0592	0.0182	-0.0073	-0.0462	0.0165	0.9585
53.9829	-16.8215	616.8963	44.7372	-209.2125	-54.6299	652.5756	13.4296	129.5648	-7.197	52.7061	0.88677	114.0801	-0.0592	0.0182	-0.0073	-0.0462	0.0165	0.9585
53.9949	-14.6272	658.6673	51.5759	-222.4579	-60.846	692.4951	8.5139	93.7365	-5.6696	38.1553	1.6164	82.6579	-0.0592	0.0182	-0.0073	-0.0462	0.0165	0.9585
54.007	-12.4671	697.7355	58.2286	-234.7149	-66.8181	729.2699	4.477	64.3406	-4.4234	26.2088	2.2049	56.8907	-0.0592	0.0182	-0.0073	-0.0462	0.0165	0.9585
54.0191	-10.3257	732.0523	64.0319	-245.3674	-71.8525	760.8528	1.4752	41.2415	-3.3559	16.8197	2.5034	36.644	-0.0592	0.0182	-0.0073	-0.0462	0.0165	0.9585
54.0311	-8.1341	759.7184	68.7188	-253.8353	-75.6456	785.3476	-0.49807	23.9911	-2.4105	9.8065	2.4685	21.5418	-0.0592	0.0182	-0.0073	-0.0462	0.0165	0.9585
54.0432	-5.953	779.3312	72.0431	-259.6921	-77.9748	801.4529	-1.5388	11.9365	-1.5738	4.9048	2.1367	11.0163	-0.0592	0.0182	-0.0073	-0.0462	0.0165	0.9585
54.0553	-3.8188	790.1179	74.0983	-262.708	-78.9563	808.4795	-1.8668	4.2723	-0.88357	1.7882	1.6382	4.3545	-0.0592	0.0182	-0.0073	-0.0462	0.0165	0.9585
54.0674	-1.8143	792.2754	74.9152	-262.9687	-78.6656	806.7291	-1.7775	0.058778	-0.3724	0.072462	1.1197	0.73466	-0.0592	0.0182	-0.0073	-0.0462	0.0165	0.9585
54.0794	0.093661	786.8651	74.6699	-260.8437	-77.2911	797.3472	-1.4612	-1.7268	-0.031003	-0.65322	0.66118	-0.76195	-0.0592	0.0182	-0.0073	-0.0462	0.0165	0.9585
54.0915	1.8836	775.7322	73.4672	-256.9564	-74.9599	782.2328	-1.0853	-1.9398	0.1746	-0.74094	0.30438	-0.86595	-0.0592	0.0182	-0.0073	-0.0462	0.0165	0.9585
54.1036	3.5936	761.118	71.5153	-252.0476	-71.8824	763.6281	-0.69765	-1.2838	0.27131	-0.47248	0.055892	-0.22937	-0.0592	0.0182	-0.0073	-0.0462	0.0165	0.9585
